<svg width="205" height="205" viewBox="0 0 205 205" fill="none" xmlns="http://www.w3.org/2000/svg">
<path d="M153.167 56.6726C153.167 55.1743 153.435 55.977 136.383 38.8809C135.207 37.7572 139.403 38.105 70.3139 38.105C69.605 38.105 68.9252 38.3869 68.424 38.8887C67.9227 39.3904 67.6412 40.0709 67.6412 40.7805V54.1577H54.2777C53.5688 54.1577 52.889 54.4395 52.3878 54.9413C51.8866 55.443 51.605 56.1235 51.605 56.8331V163.851C51.605 164.56 51.8866 165.241 52.3878 165.742C52.889 166.244 53.5688 166.526 54.2777 166.526H134.459C135.167 166.526 135.847 166.244 136.348 165.742C136.85 165.241 137.131 164.56 137.131 163.851V150.473H150.495C151.204 150.473 151.883 150.192 152.385 149.69C152.886 149.188 153.167 148.508 153.167 147.798C153.167 59.0002 153.167 57.3949 153.167 56.6726ZM144.054 54.1577H137.131V47.2283L144.054 54.1577ZM131.786 161.175H56.9504V59.5085H115.75V72.8857C115.75 73.5953 116.031 74.2758 116.532 74.7775C117.034 75.2793 117.714 75.5612 118.422 75.5612H131.786V161.175ZM121.095 63.2809L128.017 70.2103H121.095V63.2809ZM137.131 145.123C137.131 72.0831 137.425 73.0195 136.864 71.7888C136.57 71.0932 137.906 72.5379 120.32 54.9335C119.171 53.8099 121.229 54.1577 72.9865 54.1577V43.4559H131.786V56.8331C131.786 57.5427 132.067 58.2232 132.569 58.7249C133.07 59.2267 133.75 59.5085 134.459 59.5085H147.822V145.123H137.131Z" fill="#A790C6"/>
<circle cx="102.386" cy="102.29" r="99.7954" stroke="#A790C6" stroke-width="5"/>
<path d="M72.2798 87.9868C73.7648 86.5019 76.1725 86.5018 77.6575 87.9868L95.5832 105.913L113.509 87.9868C114.994 86.5018 117.401 86.5018 118.887 87.9868C120.372 89.4718 120.372 91.8795 118.887 93.3645L100.961 111.29L118.887 129.216C120.372 130.701 120.372 133.109 118.887 134.594C117.402 136.079 114.994 136.079 113.509 134.594L95.5832 116.668L77.6575 134.594C76.1725 136.079 73.7648 136.079 72.2798 134.594C70.7947 133.109 70.7948 130.701 72.2798 129.216L90.2055 111.29L72.2798 93.3645C70.7948 91.8795 70.7947 89.4719 72.2798 87.9868Z" fill="#A790C6"/>
</svg>
